<?xml version="1.0" encoding="UTF-8"?>
<svg xmlns="http://www.w3.org/2000/svg" xmlns:xlink="http://www.w3.org/1999/xlink" version="1.1" id="Capa_1" x="0px" y="0px" viewBox="0 0 300 59" style="enable-background:new 0 0 300 59;" xml:space="preserve">
<style type="text/css">
	.st0{fill:none;}
	.st1{fill:#FFFFFF;}
</style>
<image style="display:none;overflow:visible;enable-background:new    ;" width="300" height="59">
</image>
<rect x="-3.5" y="-119" class="st0" width="304.5" height="304.5"></rect>
<path class="st1" d="M29,44.8c1.1-0.4,1.4-1.4,1.4-3.9V25.5c0-2.5-0.2-3.5-1.4-3.9v-0.5h7.2c7.9,0,9.6,3.9,9.6,6.7  c0,4.3-3.1,8-10.2,8h-1.7v5.1c0,2.5,0.2,3.5,1.4,3.9v0.5H29V44.8z M35.6,35.2c4.5,0,6.4-2.6,6.4-6.5c0-3-1.4-7-6.9-7  c-0.3,0-0.8,0-1.1,0.1v13.5h1.6V35.2z"></path>
<rect x="-3.5" y="-119" class="st0" width="304.5" height="304.5"></rect>
<path class="st1" d="M47.9,33.1c0-6.8,5-12.2,12.3-12.2c5.8,0,12.3,4,12.3,12.4S66,45.6,60.2,45.6C54.4,45.6,47.9,41.8,47.9,33.1   M62.2,44.5c5.3,0,7.2-4,6.9-8.5c-0.5-7.3-4.7-14.3-10.6-14.3c-4.7,0-7.3,3.7-7,9.2C52,37.9,56.4,44.5,62.2,44.5"></path>
<rect x="-3.5" y="-119" class="st0" width="304.5" height="304.5"></rect>
<path class="st1" d="M75.8,44.8c1.1-0.4,1.4-1.4,1.4-3.9V27.6c0-4.2-0.8-5.4-2.3-6v-0.5H80l8.5,14.1l8.1-14.1h4.9v0.5  c-1.6,0.6-2.3,1.8-2.3,6v13.3c0,2.5,0.2,3.5,1.4,3.9v0.5h-6.4v-0.5c1.1-0.4,1.4-1.4,1.4-3.9V24.2l-8.3,14.5h-0.8l-8.6-14.2v14.3  c0,4.2,0.8,5.4,2.6,6v0.5h-4.6L75.8,44.8L75.8,44.8z"></path>
<rect x="-3.5" y="-119" class="st0" width="304.5" height="304.5"></rect>
<path class="st1" d="M104.9,33.1c0-6.8,5-12.2,12.3-12.2c5.8,0,12.3,4,12.3,12.4s-6.5,12.3-12.3,12.3  C111.4,45.6,104.9,41.8,104.9,33.1 M119.2,44.5c5.3,0,7.2-4,6.9-8.5c-0.5-7.3-4.7-14.3-10.6-14.3c-4.7,0-7.3,3.7-7,9.2  C109,37.9,113.4,44.5,119.2,44.5"></path>
<rect x="-3.5" y="-119" class="st0" width="304.5" height="304.5"></rect>
<path class="st1" d="M134,25.2v13.7c0,4.2,0.8,5.4,2.6,6v0.5H132v-0.5c1.1-0.4,1.4-1.4,1.4-3.9V25.5c0-2.5-0.3-3.5-1.8-3.9v-0.5h3.9  L150,39.3V27.6c0-4.2-0.8-5.4-2.6-6v-0.5h4.7v0.5c-1.1,0.4-1.4,1.4-1.4,3.9v20h-0.4L134,25.2z"></path>
<rect x="-3.5" y="-119" class="st0" width="304.5" height="304.5"></rect>
<path class="st1" d="M152.5,44.8c1-0.4,2-1.3,2.9-3.6l6.4-16c0.3-0.7,0.2-1.2-0.1-1.9l-0.4-1l3.4-1.5l8.5,20.4  c1,2.3,1.9,3.2,2.7,3.5v0.5h-6.3v-0.5c1.1-0.4,0.7-1.3-0.3-3.5l-2.1-5H158l-2,4.9c-0.9,2.3-0.7,3.3,0.4,3.6v0.5h-4v-0.4H152.5z   M167,35.7l-4.4-10.6l-4.3,10.6H167z"></path>
<rect x="-3.5" y="-119" class="st0" width="304.5" height="304.5"></rect>
<path class="st1" d="M184.1,33.6c0-7,5.5-12.7,14-12.7c2.5,0,6.1,0.5,7.9,1.7l0.1,4.5l-0.4,0.1c-1.4-3.5-5-5.7-8.5-5.7  c-5.5,0-9.4,3.7-9.4,10.5c0,6.6,3.9,12.8,10.6,12.8c3.9,0,6.5-2.3,7.8-5.9l0.4,0.1l-0.6,4.9c-1.8,0.8-4.4,1.7-8.6,1.7  C189.2,45.6,184.1,41.3,184.1,33.6"></path>
<rect x="-3.5" y="-119" class="st0" width="304.5" height="304.5"></rect>
<path class="st1" d="M209.8,44.8c1.1-0.4,1.4-1.4,1.4-3.9V25.5c0-2.5-0.2-3.5-1.4-3.9v-0.5h6.4v0.5c-1.1,0.4-1.4,1.4-1.4,3.9v17.4  c0,1.1,0.6,1.7,1.7,1.7h2.8c3.5,0,5.3-0.8,6.6-3.8l0.4,0.1l-0.3,4.3h-16.4v-0.4H209.8z"></path>
<rect x="-3.5" y="-119" class="st0" width="304.5" height="304.5"></rect>
<path class="st1" d="M229.7,35.9V25.5c0-2.5-0.2-3.5-1.4-3.9v-0.5h6.4v0.5c-1.1,0.4-1.4,1.4-1.4,3.9v10.6c0,6.3,3.1,8.6,7.8,8.6  c2.9,0,6.6-2.1,6.6-8.8v-8.4c0-4.2-0.8-5.4-2.6-6V21h4.6v0.5c-1.1,0.4-1.4,1.4-1.4,3.9v10.4c0,6.9-3.6,9.7-8.6,9.7  C234.8,45.6,229.7,43.3,229.7,35.9"></path>
<rect x="-3.5" y="-119" class="st0" width="304.5" height="304.5"></rect>
<path class="st1" d="M252.3,44.8c1.1-0.4,1.4-1.4,1.4-3.9V25.5c0-2.5-0.2-3.5-1.4-3.9v-0.5h8.5c5.6,0,7.7,1.8,7.7,4.5  c0,2.3-1.5,4.5-5.8,5.2c5.7,0.2,8.6,2.8,8.6,6.2c0.1,4-3.1,8.1-11.5,8.1h-7.5L252.3,44.8L252.3,44.8z M260.4,30.8c2.5,0,4-1.9,4-4.3  c0-3-2.2-4.8-5.7-4.8h-1.4v9.1C257.3,30.8,260.4,30.8,260.4,30.8z M259.2,44.7h1c5,0,7.1-2.6,7.1-6.3c0-4.1-2.3-7.1-7.4-7.1h-2.4  v10.3C257.4,44.2,257.7,44.7,259.2,44.7"></path>
</svg>
